<svg xmlns="http://www.w3.org/2000/svg" viewBox="0 0 470 120" fill="none">
  <defs>
    <linearGradient id="lg-blue" x1="10" y1="6" x2="104" y2="104" gradientUnits="userSpaceOnUse">
      <stop stop-color="#2f8fdc"/><stop offset="1" stop-color="#1667b8"/>
    </linearGradient>
    <linearGradient id="lg-teal" x1="20" y1="40" x2="74" y2="66" gradientUnits="userSpaceOnUse">
      <stop stop-color="#1cb6a6"/><stop offset="1" stop-color="#12897c"/>
    </linearGradient>
  </defs>

  <!-- 아이콘 -->
  <g fill="url(#lg-blue)">
    <rect x="35" y="2" width="42" height="102" rx="13"/>
    <rect x="4" y="33" width="104" height="42" rx="13"/>
  </g>
  <g transform="rotate(-38 47 52)">
    <clipPath id="lg-cap"><rect x="19" y="39" width="54" height="26" rx="13"/></clipPath>
    <g clip-path="url(#lg-cap)">
      <rect x="19" y="39" width="54" height="26" fill="#ffffff"/>
      <rect x="46" y="39" width="27" height="26" fill="url(#lg-teal)"/>
    </g>
    <rect x="19" y="39" width="54" height="26" rx="13" fill="none" stroke="#0e7d72" stroke-width="3"/>
    <line x1="46" y1="39" x2="46" y2="65" stroke="#0e7d72" stroke-width="2.4"/>
  </g>
  <g stroke-linecap="round" stroke-linejoin="round" fill="none">
    <path d="M84 92 L104 72" stroke="#1cb6a6" stroke-width="6"/>
    <path d="M104 72 h-9 M104 72 v9" stroke="#1cb6a6" stroke-width="6"/>
    <path d="M69 82 h34 l-5 19 h-24 z" stroke="#12897c" stroke-width="5.5"/>
    <path d="M69 82 l-6 -7" stroke="#12897c" stroke-width="5.5"/>
  </g>
  <circle cx="80" cy="112" r="4.5" fill="#12897c"/>
  <circle cx="93" cy="112" r="4.5" fill="#12897c"/>

  <!-- 워드마크 -->
  <text x="132" y="82" font-family="'Pretendard','Segoe UI',Arial,sans-serif" font-size="70" font-weight="800" letter-spacing="-2.5" fill="#0e2a6b">Medisell</text>
</svg>
